<svg width="149" height="96" viewBox="0 0 149 96" fill="none" xmlns="http://www.w3.org/2000/svg">
<path d="M0.0133352 49.9018L9.80531 49.9049C15.2953 49.9069 16.9928 53.2609 16.9909 58.6276L16.9823 86.2521C16.9804 91.8619 15.0552 95.2765 9.79197 95.2745L0 95.2714L0.0133352 49.9018ZM6.39779 88.6875H7.92579C9.90629 88.6885 10.4169 87.5914 10.4169 85.1518L10.4245 59.6015C10.4245 56.9793 9.8034 56.0648 8.21825 56.0638H6.40732L6.39779 88.6875Z" fill="white"/>
<path d="M29.0387 86.7437L24.3413 86.7416L23.5468 95.2786L17.8302 95.2765L22.9943 49.909L30.5791 49.9121L36.0557 95.2837L29.8865 95.2817L29.0387 86.7437ZM25.0224 79.973H28.3614L26.6686 63.204L25.0224 79.973Z" fill="white"/>
<path d="M43.6947 95.2868L37.2989 95.2847L37.3122 49.9151L47.67 49.9193C51.9721 49.9203 54.065 51.8118 54.064 56.9342L54.0611 64.9836C54.0602 68.7646 52.4179 70.2887 51.2862 70.7762C52.7008 71.4474 54.0592 72.6061 54.0583 75.7169L54.0535 91.6331C54.0535 93.5236 54.3927 94.3159 54.6746 94.9871V95.2919L48.3359 95.2899C48.053 94.8024 47.7138 94.009 47.7148 91.5695L47.7186 77.9101C47.7186 75.8975 47.3795 75.0436 45.3418 75.0436H43.7005L43.6947 95.2888V95.2868ZM43.7024 68.5778H45.3999C47.1547 68.5788 47.7205 67.3595 47.7215 65.3469L47.7234 59.0053C47.7234 57.0542 47.3842 56.0782 45.4037 56.0772H43.7062L43.7024 68.5778Z" fill="white"/>
<path d="M62.8814 95.2929L56.4855 95.2909L56.4989 49.9213L62.8948 49.9233L62.889 68.0954L67.9322 49.9254L74.1585 49.9274L68.2094 71.0245L74.7682 95.297L68.2028 95.295L62.8881 75.5968L62.8814 95.2929Z" fill="white"/>
<path d="M90.4007 56.5195L82.2501 56.5164L82.2463 68.4074L88.6422 68.4095L88.6403 75.3002L82.2444 75.2981L82.2406 88.4084L90.7303 88.4114L90.7284 95.3022L75.8428 95.297L75.8561 49.9274L90.4026 49.9326L90.4007 56.5195Z" fill="white"/>
<path d="M98.3827 49.9356L103.866 74.2687L103.874 49.9377L109.704 49.9397L109.69 95.3093L104.483 95.3073L98.378 69.2058L98.3703 95.3052L92.5975 95.3032L92.6108 49.9336L98.3827 49.9356Z" fill="white"/>
<path d="M121.192 49.5169C126.456 49.519 128.493 52.0191 128.491 57.3857L128.489 64.8255L122.32 64.8235L122.322 58.2981C122.322 56.774 122.04 55.6153 120.512 55.6143C118.984 55.6143 118.644 56.6499 118.643 58.7846V59.6385C118.642 62.2002 119.095 63.6022 121.245 66.5908L125.318 72.2633C128.203 76.2885 129.108 78.5454 129.107 83.7283V85.1919C129.104 91.8383 126.499 95.802 120.84 95.7999H119.595C114.444 95.7979 111.785 92.8092 111.786 87.1983L111.789 78.1123L118.128 78.1144L118.126 86.0417C118.126 88.1764 118.804 89.213 120.219 89.213C121.747 89.213 122.313 88.1774 122.314 85.3109V84.2743C122.315 80.9819 122.033 79.9443 119.714 76.6508L115.64 71.0389C112.924 67.2569 112.133 64.3298 112.135 59.8171V58.3536C112.137 52.2551 114.968 49.5128 120.005 49.5138H121.194L121.192 49.5169Z" fill="white"/>
<path d="M140.322 49.5241C145.586 49.5261 147.623 52.0263 147.621 57.3929L147.619 64.8327L141.45 64.8307L141.452 58.3053C141.452 56.7812 141.17 55.6225 139.642 55.6215C138.114 55.6215 137.773 56.6581 137.773 58.7918V59.6457C137.772 62.2074 138.224 63.6093 140.374 66.598L144.448 72.2705C147.333 76.2957 148.238 78.5526 148.236 83.7355V85.199C148.233 91.8455 145.629 95.8092 139.969 95.8071H138.724C133.573 95.8051 130.915 92.8164 130.916 87.2055L130.918 78.1195L137.257 78.1215L137.255 86.0488C137.255 88.1836 137.934 89.2202 139.348 89.2202C140.876 89.2202 141.443 88.1846 141.444 85.3181V84.2815C141.445 80.9891 141.163 79.9515 138.843 76.658L134.77 71.0461C132.054 67.2641 131.262 64.337 131.264 59.8243V58.3607C131.266 52.2623 134.097 49.52 139.135 49.521H140.324L140.322 49.5241Z" fill="white"/>
<path d="M18.8724 0.417717L18.861 38.7745L26.6715 38.7775L26.6696 45.7904L12.4632 45.7853L12.4765 0.415665L18.8724 0.417717Z" fill="white"/>
<path d="M34.9336 45.7924L28.5377 45.7904L28.551 0.420799L34.9469 0.422852L34.9336 45.7924Z" fill="white"/>
<path d="M43.4795 46.4052C39.6872 46.4041 37.3675 42.8048 37.3694 38.1094L37.378 9.75314C37.379 4.69234 39.1356 -0.00205197 45.2476 6.72897e-07H46.4927C53.3411 0.00307964 54.1317 4.82064 54.1308 10.1862V14.8211L47.9035 14.8191L47.9054 9.69669C47.9054 7.68407 47.4539 6.58694 45.8687 6.58591C44.5665 6.58591 43.8873 7.62147 43.8873 9.69464L43.8796 36.221C43.8796 38.3557 44.5579 39.4528 45.9725 39.4539C47.6139 39.4539 48.3503 38.2356 48.3503 36.5278L48.3541 25.1859H45.4677L45.4696 18.2336L54.4128 18.2367L54.4042 45.7996H50.7814C50.7252 45.5543 50.2165 43.2985 49.7078 41.3464C49.2543 42.8705 47.1024 46.4072 43.8768 46.4062H43.4805L43.4795 46.4052Z" fill="white"/>
<path d="M63.2321 45.8027L56.8362 45.8007L56.8495 0.431068L63.2454 0.433121L63.2397 18.6052H67.5979L67.6037 0.434147L73.9995 0.4362L73.9862 45.8058L67.5903 45.8037L67.596 25.8633H63.2378L63.2321 45.8027Z" fill="white"/>
<path d="M92.9043 0.443391L92.9023 7.0293L87.5258 7.02725L87.5143 45.8109L81.1756 45.8089L81.187 7.02519L75.8104 7.02314L75.8124 0.437233L92.9043 0.443391Z" fill="white"/>
<path d="M96.9015 45.1859H93.814L93.8197 23.2883H96.9072L96.9015 45.1859Z" fill="white"/>
<path d="M100.95 23.2914L103.597 35.0356L103.599 23.2924H106.413L106.408 45.19H103.895L100.948 32.5919L100.944 45.1879H98.158L98.1637 23.2903H100.95V23.2914Z" fill="white"/>
<path d="M118.324 23.2975V26.476H115.728L115.723 45.1941H112.664L112.668 26.475H110.073V23.2954L118.324 23.2985V23.2975Z" fill="white"/>
<path d="M122.278 45.1951H119.191L119.197 23.2975H122.284L122.281 32.0684H124.385L124.387 23.2985H127.475L127.469 45.1961H124.382L124.385 35.5713H122.281L122.278 45.1951Z" fill="white"/>
<path d="M135.753 23.3027V26.4812L131.818 26.4802L131.816 32.2193H134.903V35.5457H131.816L131.814 41.8719H135.912V45.1992L128.728 45.1972L128.733 23.3006L135.753 23.3027Z" fill="white"/>
</svg>
