<?xml version="1.0" encoding="UTF-8"?>
<svg id="Livello_1" xmlns="http://www.w3.org/2000/svg" version="1.1" viewBox="0 0 858 613">
  <!-- Generator: Adobe Illustrator 29.2.1, SVG Export Plug-In . SVG Version: 2.1.0 Build 116)  -->
  <defs>
    <style>
      .st0 {
        fill: #222;
      }
    </style>
  </defs>
  <path class="st0" d="M648.4,344.8c-9.2.4-18.5.7-27.7,1.1-4.4.2-8.8,1-13.3,1.1-12.2.3-24.4.6-36.6.6-39.4.2-78.9.5-118.3.5-3,0-5.9-1.5-8.9-1.7-4.6-.2-8.1-1.6-10.2-6-1.2-2.4-4-4.2-5-6.6-1.2-2.9-1.7-6.3-1.8-9.4-.1-6.9.4-13.9.3-20.9-.1-7.4-1.1-14.9-1-22.3,0-6.1,1.1-12.1,1.8-18.1.5-4.5,1.1-9,1.6-13.5,1-8.7,2.1-17.4,3.1-26.1.8-6.8,1.5-13.6,2.1-20.4.6-6.2.7-12.5,2-18.6.8-3.7,3.7-6.9,5.4-10.4,3.2-6.6,8.6-8,15.4-8.2,9.9-.3,19.9-1.4,29.8-2.2,5-.4,10-.8,15.1-1.2,7-.6,13.9-1.1,20.9-1.7.7,0,1.4,0,2.1,0,10.2-.4,20.4-.8,30.5-1.2,6.1-.2,12.3-.4,18.4-.6,10.5-.4,21-.9,31.5-1.1,20.3-.5,40.5-.8,60.8-1.2,6.1-.1,12.3-.3,18.4-.4,2.2,0,3.8.6,3.9,3.4.4,8.6.9,17.2,1.4,25.8,0,.4,0,.8,0,1.2.2,13.4.3,26.9.6,40.3.2,7.2.6,14.4.9,21.6.3,7.9.5,15.8.9,23.7.2,4.6,1.5,9.3,1,13.8-.7,5.9-2.4,11.8-4.2,17.5-3,9.2-6.7,18.2-9.6,27.4-1.4,4.5-4.2,6.7-8.4,8-5.2,1.6-10.2,3.7-15.4,5.2-2.4.7-5,.6-7.5.8,0,0,0,0,0-.1h0ZM25.1,65.2c-1.5,4.4-3.3,8.7-4.4,13.2-2.4,9.7-4.5,19.6-6.7,29.4-2.1,9.4-4.2,18.9-6.2,28.3-2.4,11.5-4.7,23.1-7,34.6-1,4.9-1.2,9.6,1.6,14,.5.8,1,1.8,1,2.7.1,2.4,1.6,3.3,3.6,3.9,12.9,4.3,26.1,7.6,39.5,10,10,1.8,19.8,4.4,29.7,6.4,9.7,2,19.4,3.8,29.1,5.7,8.8,1.7,17.7,3.4,26.5,5.1,5.7,1.1,11.4,2.1,17,3.1,8,1.3,16,2.4,23.9,3.8,9.4,1.6,18.7,3.3,28.1,5,10.8,2,21.7,4.1,32.5,6.1,6.6,1.3,13.2,2.6,19.8,3.8,6.7,1.2,13.4,2.2,20.2,3.5,5.6,1.1,11.2,2.5,16.8,3.5,11.4,1.9,22.8,3.6,34.2,5.3,8.2,1.2,16.4,2.3,24.5,3.5,7.2,1.1,14.4,2.7,21.6,3.3,3.8.3,7.6,2.8,11.9-.5,4.6-3.5,10.3-5.6,15.4-8.3,4.7-2.5,8.3-5.6,9.4-11.4.7-3.9,2.7-7.6,4.1-11.3,1.6-4.4,3.4-8.8,2.7-13.7-.4-2.7-.4-5.4-.6-8.1-.3-3.8-.6-7.7-1.1-11.5-.5-3.7.3-7.2-1-11.1-2-6.3-2.5-13.2-3.9-19.8-.4-1.6-1.8-3.4-3.2-4.3-1.2-.8-3.2-.5-4.8-.7-9.2-1-18.4-2-27.6-2.9-8.2-.8-16.5-1.6-24.8-2.4-10.2-1-20.4-2-30.6-2.9-8.4-.8-16.7-1.5-25.1-2.3-7.8-.8-15.6-1.6-23.3-2.3-11.1-1-22.1-2-33.2-2.9-10.1-.8-20.2-1.6-30.4-2.4-3.5-.3-7-.3-10.4-.7-6.7-.7-13.4-1.6-20.1-2.2-5.5-.5-11-.8-16.5-1.2-7.9-.7-15.8-1.5-23.6-2.3-4.7-.4-9.4-.8-14.2-1.2-7.8-.7-15.6-1.5-23.3-2.3-4.5-.4-9-.8-13.6-1.2-7.7-.7-15.4-1.5-23-2.3-6.3-.7-12.3.9-18.1,2.9-2,.7-3.3.2-3.7-1.9-.4-2.2-.5-4.4-.9-6.6-1.5-8.7-3.1-17.4-4.7-26.1-1.3-6.9-2.7-13.8-4.1-20.6-.7-3.2-1.4-6.5-2.1-9.7-.4,0-.7,0-1.1,0h0ZM201.9,287.9c-8.9,1.5-17.8,3-26.6,4.8-7.2,1.5-14.3,3.5-21.5,5.1-10.4,2.4-20.9,4.6-31.3,7.1-8.2,2-16.3,4.2-24.5,6.3-11,2.8-21.9,5.6-32.9,8.5-6.7,1.8-13.2,3.8-19.9,5.5-4.5,1.2-9.2,2-13.7,3.1-4.2,1.1-8.4,2.3-12.6,3.6-2.1.7-3.2,1.6-2.6,4.5,1.5,6.4,2.6,13,3.7,19.5.9,5.7,1.6,11.4,2.5,17.1,1.1,7,2.4,14,3.3,21,1.2,8.8,1.8,17.8,3,26.6,1.3,9.6,3.1,19.1,4.7,28.6.3,1.6,1.1,2.8,2.9,2,3.4-1.5,6.5-3.6,7.5-7.5,1.9-6.6,3.5-13.3,5.3-19.9,2.5-8.8,5-17.5,7.7-26.2.4-1.4,2-2.7,3.4-3.4,4-1.8,8.2-3,12.3-4.7,8.9-3.7,17.7-7.7,26.7-11.3,8.9-3.6,17.9-6.7,26.9-10.2,4.2-1.6,8.3-3.6,13.1-3,3.6.5,7.3.4,11,.5,1.9,0,3.8-.5,5.7-.4,5.2.3,10.4.9,15.6,1,5.7.2,11.5,0,17.2,0,1.2,0,2.3.2,3.5.2,7.4,0,14.7,0,22.6,0-1.1-13.2-2.3-26.5-3.4-39.7.9,0,1.2.3,1.3.6.8,5.2,1.6,10.4,2.4,15.6.8,5.1,1.5,10.3,2.5,15.4.2.8,1.5,2.1,2.3,2.1,11.2.1,22.3,0,33.5,0,6,0,12,.5,18.1.4,13.3,0,26.5-.4,39.8-.5,1.6,0,3.9-1.6,4.5,1.5,0,.2.9.2,1.4.2,4-.4,8.1-.8,12.1-1.2,7.7-.9,15.5-1.9,23.2-2.8,7.7-.9,15.4-1.5,23.1-2.4,6.2-.8,12.4-1.8,18.5-2.9,5.9-1,11.8-2.5,17.8-3.3,2.3-.3,3.7-1.2,4.7-3.2,3.7-7.2,5.7-15,7.3-22.9.3-1.7.3-3.6.1-5.4-.5-6.1-1.2-12.1-1.8-18.1-.4-3.8-.9-7.6-1.5-11.5-.9-6.2-4.7-11.1-7.6-16.3-.9-1.5-2.7-3.2-4.4-3.5-5.3-1.1-10.6-1.8-16-2.5-5.5-.7-11.1-1.3-16.6-2-6.9-.9-13.7-1.8-20.6-2.7-4.7-.6-9.4-1.2-14.1-1.7-5.1-.5-10.2-1.1-15.3-1.2-4.3-.1-8.6.3-12.8.5-7,.4-14,.2-20.5,3.4-2,.9-4.2,1.4-6.4,1.8-11.8,2.3-23.6,4.5-35.3,6.7-11.6,2.2-23.2,4.5-34.7,6.8-3.9.8-7.7,1.9-11.7,2.9,1.6,5.4,1,6.4-2.7,7h0ZM559.8,608.9c.5-2.9,1.3-5.8,1.3-8.7,0-5.2-.6-10.4-1.1-15.6-.5-5.7-1.2-11.4-1.7-17.1-.3-3-.1-5.6,3.1-7.4,4.2-2.4,8.1-5.5,12.1-8.3,12.9-9.3,25.8-18.5,38.6-27.9,12.7-9.3,25.3-18.7,37.9-28.2,1.5-1.2,3.2-2.3,4.3-3.9,1.9-2.8,3.3-6,5.1-8.9,6-10.1,12.3-20.1,18-30.4,5.2-9.4,10-19,14.4-28.7,5.2-11.6,9.9-23.4,14.7-35.2,1.1-2.6,2.8-5.4.7-8.4-3.1-4.5-5.9-9.2-9-13.7-.9-1.3-2.5-2.5-4-3.1-6.2-2.3-12.4-4.6-18.7-6.4-7.7-2.3-15.5-4.1-23.6-5-6.2-.7-12.3-1.7-18.6-.4-2.9.6-5.1,1.8-6.4,4.3-1.9,3.5-3.7,7.1-5.3,10.8-4.1,9.1-8.1,18.3-12.3,27.3-2.9,6.2-6.2,12.1-9.3,18.2-3.9,7.6-7.7,15.2-11.6,22.7-5.7,10.8-11.6,21.5-17.1,32.5-3.8,7.6-6.7,15.6-10.5,23.2-3.6,7.3-7.6,14.4-11.6,21.5-1.3,2.4-2.7,5-4.6,6.9-5.9,5.5-12.1,10.6-18.1,16-1.6,1.5-3,1.5-4.7.5-3.3-1.9-6.7-3.7-10-5.7-5.2-3.2-10.9-5.2-16.8-6.3-1.3-.2-3.5,1.2-4.4,2.5-.7,1-.9,3.5-.1,4.4,2.4,3,5.1,5.8,8,8.3,4,3.5,8.4,6.6,12.6,10,1.7,1.4,1.4,2.7-.5,3.7-6.3,3.4-12.7,6.5-18.8,10.2-4.7,2.9-9.2,6.3-13.5,9.8-3.7,3-3.2,6.4.9,7.8,1.4.5,3.3.6,4.5,0,4.7-2.2,9.3-4.6,13.7-7.2,6.9-4.1,13.7-8.5,20.6-12.6.7-.4,1.7,0,2.6,0-.3.7-.4,1.7-1,2.2-2.2,1.9-4.5,3.6-6.7,5.6-5.5,5.1-11,10.3-16.5,15.4-2.4,2.3-5,4.4-7.7,6.7,3.1,2,7.3,2.4,10.4,1.7,6.9-1.6,12.5-5.8,18.3-9.7,3.1-2.1,6.2-4.4,9.3-6.6.2.1.4.3.7.4-.2,1.2-.3,2.6-.7,3.7-2,4.7-4.1,9.3-6.1,14-2.3,5.3-3.1,10.8-1.5,16.5.2.8,1,1.6,1.7,2,.2.1,1.4-.6,1.7-1.2,3.8-6.5,7.7-13,11.1-19.7,3.4-6.6,6.3-13.5,9.5-20.3.5-1.1,1.4-2.1,2.4-3.4.8,1.2,1.5,1.8,1.6,2.4.5,3.1.9,6.3,1.3,9.4.5,3.9.5,8,1.7,11.6,1.6,4.8,4.3,9.2,6.5,13.7.7,1.3,1.5,2.6,2.2,3.9.4,0,.7,0,1.1,0h0ZM411.1,66.5c-.8.2-1.5.4-2.3.5-7.1,1-14.1,1.9-21.2,3-1.7.3-3.3,1.4-4.9,2.1-2.1.8-2.6,2.5-2,4.3.5,1.5,1.7,3.2,3,3.8,2.3.9,4.9,1.5,7.3,1.4,5.1-.1,10.2-.6,15.3-1.1,9.9-1.1,19.7-2.3,29.6-3.4,2.5-.3,3.2.7,2.4,3.1-.6,1.6-1.4,3.2-2,4.8-1.6,5-3.2,10-4.7,15-.9,3.3-1.7,6.7-2.3,10-.2,1,.4,2.4,1.1,3.2.4.4,2.2,0,2.8-.6,3.7-3.5,7.5-7.1,10.8-11,2.8-3.2,5.9-6.4,6.8-10.8.7-3.3,1.6-6.5,2.5-9.7.6-2.2,2.3-2.9,4.3-2.1,10,4,20.1,7.9,30,12.2,7.5,3.2,14.7,6.9,22,10.5,10.6,5.2,21.4,10.2,31.7,15.9,15.1,8.3,30.1,16.6,46.2,22.9,10.7,4.2,21.3,8.6,32,12.8.6.2,1.5.2,2.1,0,5.1-1.6,10.2-3.2,15.4-4.8,9.4-2.8,18.9-5.4,28.4-8.3,7.9-2.4,15.4-5.5,21.3-11.6,3.6-3.7,6.8-7.7,10.4-11.4,2-2.1,1.3-3.7-.4-5.2-1.1-.9-2.4-1.7-3.7-2.3-9.9-4.2-19.8-8.6-29.9-12.5-15.2-6-30.5-11.8-46-17.3-10.9-3.9-22-7.1-33-10.6-5.4-1.7-10.7-3.6-16.1-5.2-14.1-4.1-28.1-8.2-42.2-12.1-8-2.2-16.1-4.2-24.2-6.1-8-1.9-16.1-3.5-24.1-5.5-13.1-3.2-26.3-6.5-39.4-9.8-1.2-.3-2.5-1-3.4-1.8-2.8-2.7-5.3-5.6-7.9-8.4-1.8-2-3.5-4-5.4-5.9-4.7-4.6-9.5-9.2-14.4-13.7-.8-.7-2.5-1-3.4-.6-.8.4-1.4,2-1.3,3,.3,2.2.8,4.5,1.6,6.6,3.4,7.9,8,15.1,13.3,21.8.9,1.1,1.1,2.7,1.6,4-.3.2-.6.5-.9.7-1.6-1.1-3.2-2.2-4.8-3.3-4.5-3.1-9.1-6.2-13.7-9.2-4.7-3.2-9.4-6.3-14.2-9.4-.8-.5-2.4-.6-3.1-.1-.7.5-1.3,2.2-1,3,1.2,3,2.5,6.1,4.5,8.6,3.6,4.5,7.7,8.6,11.6,13,.7.8,1.3,1.8,2.4,3.3-1.5.2-2.5.5-3.4.4-4.4-.8-8.8-1.8-13.3-2.6-4.4-.8-8.8-.9-12.7,2.4,1.1,1.6,1.8,3.6,3.1,4.4,5.7,3.5,11.5,6.8,17.5,9.8,6.6,3.2,13.4,6,20.1,9,0,.4,0,.7,0,1.1h0ZM708.4,208.9c-1.8,11.2-3.6,22.4-5.3,33.5-.9,5.8-1.6,11.6-2.4,17.4-.6,4.7-1.2,9.3-1.8,14-.2,2,.7,2.7,2.6,3,6.1.9,12.2,1.9,18.2,2.8,3.3.5,6.8,1.6,10,1,3.6-.6,5.5,1,7.9,2.7,2.5,1.8,3.1,3.9,2.9,6.6,0,1.2,0,2.5.3,3.7,2,6.9,4.1,13.7,6.1,20.5,2.3,7.5,5.5,14.6,10,21,2.9,4.2,6.4,8,9.7,11.8,2.1,2.4,4.1,5,6.6,6.9,6.4,4.8,14.1,4,21.2,2.7,8.2-1.5,16.3-4.1,24.2-6.8,14.2-4.7,23.7-15.1,31.1-27.6,2.6-4.3,4.3-9.2,6-13.9,1-2.9,1.8-6.2,1.7-9.2,0-4.6-.9-9.2-1.6-13.7-.3-2-.6-4.1-1.6-5.7-2-3.6-4.3-7.1-6.7-10.4-3.3-4.5-6.6-9.1-10.5-13.1-5.9-6-13.6-9.6-20.9-13.5-8.4-4.5-17.8-5.1-27-6.3-8.4-1-17-1.4-25.4-2.5-4.3-.5-8.8-.6-12.7-3.1-8.8-5.5-17.7-10.8-26.6-16.1-4.9-3-9.8-5.9-15.1-9-.5,1.3-1,2.2-1.2,3.2h0Z"/>
</svg>